<?xml version="1.0" standalone="no"?>
<!DOCTYPE svg PUBLIC "-//W3C//DTD SVG 20010904//EN"
 "http://www.w3.org/TR/2001/REC-SVG-20010904/DTD/svg10.dtd">
<svg version="1.0" xmlns="http://www.w3.org/2000/svg"
 width="1024.000000pt" height="1024.000000pt" viewBox="0 0 1024.000000 1024.000000"
 preserveAspectRatio="xMidYMid meet">

<g transform="translate(0.000000,1024.000000) scale(0.100000,-0.100000)"
fill="#000000" stroke="none">
<path d="M7105 8888 c-251 -126 -641 -393 -766 -525 -90 -95 -286 -354 -599
-793 -168 -235 -361 -503 -367 -510 -2 -3 -26 18 -53 46 l-48 51 18 76 c9 43
15 79 11 81 -3 2 -75 7 -159 11 -84 4 -164 10 -177 13 l-24 7 36 58 c19 32 32
61 28 65 -4 4 -75 6 -158 6 l-152 -2 -2 98 c-2 171 -49 300 -135 372 -27 23
-55 56 -63 73 -20 49 -74 104 -129 132 -99 51 -220 29 -303 -55 -52 -52 -73
-105 -73 -187 0 -112 48 -192 142 -239 129 -64 294 -10 360 118 18 35 20 37
32 20 29 -42 48 -124 53 -224 l6 -106 -144 -12 c-217 -19 -394 -63 -537 -136
-28 -14 -53 -26 -55 -26 -3 0 -8 27 -11 61 -21 184 -120 360 -235 419 -27 13
-52 38 -71 69 -51 82 -123 121 -223 121 -239 -1 -357 -291 -187 -460 85 -86
200 -104 309 -49 68 34 113 85 133 151 6 21 15 38 19 38 15 0 71 -81 94 -138
29 -71 58 -208 53 -253 -2 -27 -15 -42 -73 -86 -96 -74 -169 -147 -216 -218
-35 -51 -49 -63 -103 -86 -130 -55 -186 -100 -226 -179 -72 -145 -76 -311 -10
-446 28 -57 29 -64 20 -120 -15 -89 -12 -138 10 -205 32 -93 137 -300 171
-335 l30 -31 168 -6 c93 -4 176 -9 184 -13 13 -5 3 -20 -46 -68 -35 -34 -73
-83 -86 -109 l-23 -47 -56 48 c-164 142 -312 206 -540 234 -110 13 -237 0
-370 -38 -301 -87 -538 -328 -627 -634 -36 -128 -48 -222 -40 -325 38 -485
414 -858 900 -891 224 -15 496 78 657 225 l56 51 48 -33 49 -32 7 -95 c29
-384 157 -728 379 -1023 175 -232 447 -440 705 -539 97 -37 70 -3 230 -295 49
-90 91 -163 94 -163 3 0 52 99 109 220 l104 220 66 21 c136 45 364 171 521
288 100 74 284 254 375 366 211 260 369 604 443 966 106 513 50 913 -175 1254
-71 107 -219 257 -320 325 -128 86 -336 150 -489 150 l-71 0 16 50 c9 27 21
48 26 45 239 -109 709 -263 955 -314 259 -54 490 -54 660 -2 71 22 263 132
362 207 83 63 232 192 343 298 89 85 90 86 69 103 -40 35 -257 146 -377 194
-91 36 -117 50 -102 55 212 74 432 195 491 272 40 50 162 305 232 482 96 243
141 382 207 649 38 152 105 462 105 485 0 17 -71 0 -300 -69 -467 -141 -679
-246 -1070 -529 -52 -38 -117 -85 -143 -104 l-48 -34 20 50 c42 107 92 418
116 732 15 196 19 595 7 682 l-7 46 -40 -20z m-49 -365 c-15 -427 -88 -991
-126 -968 -5 3 -13 -3 -19 -12 -9 -16 -12 -16 -20 -3 -7 10 -6 17 2 22 28 18
-15 4 -118 -37 -60 -24 -105 -44 -98 -44 6 -1 24 4 40 9 25 9 26 9 10 -4 -16
-13 -16 -14 10 -21 20 -5 31 -2 41 12 10 14 14 15 21 4 6 -9 10 -10 16 -2 4 7
1 20 -6 29 -12 16 -12 16 6 0 15 -14 16 -19 5 -33 -7 -9 -19 -14 -26 -11 -7 3
-16 1 -19 -4 -4 -6 -1 -10 6 -10 10 0 10 -3 1 -12 -7 -7 -12 -17 -12 -22 0 -6
7 0 16 12 11 16 21 21 39 16 16 -4 27 0 35 13 10 15 11 15 6 1 -3 -10 -1 -20
3 -22 5 -3 20 20 34 52 15 31 27 51 27 44 1 -47 -148 -246 -175 -235 -11 4
-13 0 -8 -13 6 -16 5 -17 -9 -6 -11 9 -18 10 -23 2 -3 -6 -11 -8 -16 -4 -5 3
-7 9 -4 14 6 10 -23 35 -32 26 -3 -3 -2 -6 4 -6 13 0 24 -40 15 -54 -3 -6 -6
-19 -7 -28 0 -20 -135 -130 -151 -124 -46 18 -307 66 -317 59 -116 -85 -196
-148 -192 -151 2 -3 12 1 21 9 10 8 27 14 38 14 12 0 21 5 21 12 0 12 48 53
62 53 4 0 0 -5 -9 -11 -10 -5 -23 -19 -29 -31 -9 -16 -8 -19 2 -12 20 12 119
15 119 4 0 -6 7 -10 15 -10 8 0 15 7 15 15 0 8 -6 12 -14 9 -16 -6 -29 33 -14
43 7 3 8 1 4 -6 -6 -9 0 -10 19 -5 24 6 26 4 21 -14 -4 -11 -3 -23 3 -26 14
-9 41 4 41 21 0 8 5 11 10 8 6 -4 8 -10 5 -15 -7 -11 32 -33 45 -25 6 3 7 -1
4 -10 -5 -13 -9 -13 -23 -3 -9 7 -13 8 -9 4 4 -5 3 -15 -4 -23 -6 -7 -8 -16
-5 -19 9 -9 -49 -54 -69 -54 -15 0 -16 -2 -5 -9 9 -6 -10 -26 -73 -72 -79 -58
-153 -95 -398 -199 l-67 -29 -32 42 c-18 23 -24 34 -14 25 12 -11 23 -14 34
-8 15 9 167 75 354 155 48 21 86 40 83 42 -2 3 -14 -1 -26 -7 -12 -7 -31 -10
-41 -7 -10 3 -19 1 -19 -4 0 -5 -4 -9 -9 -9 -5 0 -7 10 -4 23 3 16 2 18 -5 9
-7 -11 -10 -11 -15 2 -3 8 0 22 8 30 22 21 18 27 -11 16 -17 -7 -23 -7 -19 1
4 6 0 9 -11 7 -11 -2 -18 2 -16 10 2 10 -2 10 -19 2 -19 -10 -20 -10 -10 8 6
11 16 22 23 25 7 2 11 7 8 10 -3 3 -48 -26 -100 -64 -168 -123 -251 -179 -265
-179 -8 0 -19 8 -24 19 -9 16 0 26 62 72 264 195 417 312 417 320 0 5 -5 9
-11 9 -5 0 -8 -4 -4 -10 8 -13 -41 -44 -59 -37 -9 4 -13 1 -10 -6 2 -7 -21
-29 -51 -49 -48 -32 -60 -35 -80 -26 -13 6 -26 19 -28 29 -3 12 -18 22 -38 26
-30 6 -31 7 -13 20 18 14 17 14 -7 11 -21 -2 -51 -34 -134 -138 -59 -74 -102
-136 -96 -138 6 -2 11 -10 11 -18 0 -9 4 -13 9 -9 5 3 12 1 15 -4 11 -18 -20
-5 -57 23 -35 27 -48 58 -28 71 5 3 24 24 42 48 l32 42 -51 -50 -52 -50 6 33
c6 27 4 31 -10 26 -9 -3 -16 -10 -16 -16 0 -5 5 -6 12 -2 7 5 8 3 3 -5 -14
-24 -28 5 -14 30 30 58 492 704 724 1014 186 248 267 335 415 446 180 135 417
287 449 288 12 1 13 -32 7 -206z m-2743 -447 c43 -17 93 -76 108 -125 20 -69
-9 -147 -74 -195 -42 -31 -141 -29 -190 4 -48 33 -77 87 -77 143 0 82 33 135
105 168 48 22 84 24 128 5z m4113 -93 c-3 -10 -8 -36 -11 -58 -16 -97 -111
-454 -161 -602 -71 -214 -193 -515 -248 -617 -25 -45 -66 -104 -93 -131 -55
-57 -171 -124 -182 -106 -8 12 -23 9 -80 -16 -25 -11 -30 -17 -20 -24 10 -6 0
-14 -35 -30 -59 -26 -108 -40 -102 -30 3 4 -17 7 -44 7 -26 -1 -46 -4 -43 -8
8 -15 -17 -8 -49 13 -26 17 -28 20 -10 16 19 -5 21 -3 11 9 -8 10 -15 11 -25
3 -9 -7 -19 -7 -35 1 -18 10 -19 14 -8 22 11 8 10 9 -4 4 -10 -3 -32 1 -49 10
-16 8 -32 13 -35 11 -4 -5 75 -52 154 -91 48 -24 52 -31 21 -40 -43 -11 -79
-6 -129 20 -28 14 -53 23 -57 20 -3 -3 10 -12 29 -20 19 -9 30 -15 24 -16 -5
0 -4 -4 4 -9 15 -9 -11 -15 -124 -26 -43 -4 -56 -3 -45 4 8 6 23 11 33 11 15
0 16 3 7 20 -6 11 -18 20 -28 21 -14 0 -13 2 3 8 18 7 17 9 -10 14 -83 18
-227 39 -231 34 -3 -3 14 -9 38 -13 24 -4 46 -9 51 -10 4 -1 10 -2 15 -3 4 -1
0 -6 -8 -12 -12 -9 -13 -12 -1 -16 11 -5 11 -7 0 -14 -9 -6 5 -9 38 -9 48 0
87 -18 46 -21 -10 -1 -29 -4 -43 -7 -14 -3 -59 -5 -100 -5 -52 0 -66 -2 -45
-7 22 -6 25 -8 10 -10 -12 -2 -6 -5 15 -9 29 -6 16 -9 -69 -20 -95 -12 -105
-12 -113 3 -10 17 -28 13 -28 -7 0 -7 4 -6 10 3 9 13 10 13 10 -1 0 -12 -21
-18 -92 -28 -135 -18 -177 -22 -150 -13 29 9 31 24 5 37 -11 6 -18 15 -16 22
2 6 -4 13 -14 16 -16 4 -15 6 4 12 12 4 25 16 28 26 5 14 16 19 41 19 19 0 33
4 30 9 -3 4 13 14 35 21 22 8 42 17 45 21 2 4 -15 2 -38 -6 -24 -8 -176 -57
-338 -109 -380 -122 -460 -149 -455 -154 2 -2 25 3 52 11 32 11 61 13 88 8 36
-6 30 -8 -70 -24 -150 -23 -149 -23 -156 49 -14 127 -14 128 38 162 39 26 49
29 56 17 7 -13 12 -13 37 0 37 19 38 27 5 21 -14 -3 -25 -1 -25 4 0 8 371 289
555 420 50 35 160 114 245 175 85 61 227 162 315 225 88 62 192 136 230 165
239 175 484 336 589 384 128 60 298 126 491 192 110 37 204 68 208 68 5 1 6
-7 3 -16z m-5036 -121 c55 -27 93 -90 93 -154 1 -138 -124 -224 -246 -170
-129 57 -142 250 -21 319 48 28 125 30 174 5z m1412 -546 l-31 -53 41 -12 c22
-7 70 -15 108 -18 l68 -6 7 -36 c4 -20 31 -84 60 -142 65 -130 78 -188 73
-329 -2 -91 -6 -111 -23 -130 -20 -22 -187 -110 -210 -110 -6 0 -21 32 -34 72
-13 39 -46 117 -74 172 -71 139 -118 184 -284 269 -189 97 -353 143 -585 163
-43 3 -75 10 -72 15 10 17 164 89 252 119 106 35 226 57 367 66 l106 7 -6 -29
c-4 -16 -15 -62 -26 -102 -14 -53 -16 -78 -9 -92 12 -23 44 -34 75 -26 27 7
47 59 65 166 16 95 11 90 91 90 l71 0 -30 -54z m1895 -78 c-3 -8 -6 -5 -6 6
-1 11 2 17 5 13 3 -3 4 -12 1 -19z m-187 -142 c0 -11 -19 -15 -25 -6 -3 5 1
10 9 10 9 0 16 -2 16 -4z m-820 -114 c0 -11 9 -27 20 -37 25 -23 25 -26 -5
-48 -24 -17 -25 -17 -44 2 -11 11 -16 23 -13 27 4 4 -1 4 -10 1 -27 -9 -22 13
9 45 31 33 43 35 43 10z m-1175 -275 c101 -62 95 -46 95 -252 l0 -182 -63 -40
c-128 -82 -247 -145 -263 -139 -34 13 -282 157 -293 169 -6 8 -13 88 -17 194
l-7 181 44 28 c24 15 98 58 164 96 l120 67 85 -46 c47 -25 108 -59 135 -76z
m-1235 -99 c-34 -90 -71 -190 -82 -223 -11 -33 -23 -64 -28 -69 -13 -13 -30
62 -30 131 0 65 37 201 65 238 16 20 127 95 133 90 2 -2 -24 -77 -58 -167z
m2567 155 c4 -10 -39 -33 -62 -33 -8 0 -15 5 -15 10 0 6 5 10 10 10 6 0 10 5
10 11 0 5 -4 8 -9 4 -5 -3 -12 -1 -15 4 -4 5 12 8 36 6 23 -2 44 -7 45 -12z
m164 -43 c-21 -18 -61 -28 -61 -15 0 6 60 33 75 34 6 0 -1 -9 -14 -19z m-54
-28 c14 -9 -97 -103 -124 -106 -10 0 -19 10 -24 27 -6 23 -5 28 7 23 8 -3 12
-1 9 4 -8 13 64 42 87 35 13 -5 16 -2 12 9 -7 17 12 21 33 8z m-202 -112 c-3
-6 -16 -10 -28 -10 -12 0 -17 -4 -12 -8 6 -4 16 -18 24 -32 l14 -25 -24 22
-24 22 -14 -30 c-16 -36 -10 -46 13 -24 9 9 16 12 16 7 0 -5 -11 -17 -25 -26
-24 -16 -25 -16 -45 30 -12 25 -20 48 -17 50 2 2 28 17 58 33 45 25 55 28 62
15 4 -8 5 -19 2 -24z m1226 -223 c-10 -9 -11 -8 -5 6 3 10 9 15 12 12 3 -3 0
-11 -7 -18z m456 -13 c-3 -3 -12 -4 -19 -1 -8 3 -5 6 6 6 11 1 17 -2 13 -5z
m-437 -65 c-25 -4 -56 -7 -70 -7 -23 0 -22 1 5 8 17 4 48 8 70 8 l40 -1 -45
-8z m-699 -11 c1 -7 1 -16 0 -20 0 -5 6 -8 15 -8 8 0 13 4 10 8 -10 16 66 10
82 -6 16 -16 16 -18 0 -34 -10 -10 -28 -18 -40 -17 -22 1 -22 1 2 10 17 6 -6
7 -67 5 -65 -3 -93 -1 -96 7 -3 9 -8 9 -19 -1 -10 -8 -19 -9 -22 -3 -3 5 -17
8 -31 7 -13 -2 -22 1 -19 6 3 5 12 7 20 4 7 -3 16 -1 19 4 3 5 12 7 21 3 9 -3
14 0 12 7 -3 15 56 32 79 23 11 -4 9 -9 -7 -20 -11 -8 -20 -18 -20 -24 0 -16
15 -9 34 17 15 22 16 28 5 35 -11 7 -10 9 4 9 9 0 18 -6 18 -12z m76 6 c-3 -3
-12 -4 -19 -1 -8 3 -5 6 6 6 11 1 17 -2 13 -5z m-313 -76 c-5 -8 -2 -9 9 -5
10 3 17 2 17 -3 0 -6 -2 -10 -4 -10 -2 0 -12 -3 -22 -7 -12 -4 -15 -3 -10 5 5
8 -1 12 -16 13 -23 1 -23 1 2 9 14 4 26 8 28 9 2 1 0 -4 -4 -11z m124 -10 c-8
-5 19 -7 67 -4 116 8 82 0 -94 -24 -176 -23 -196 -24 -127 -5 28 8 53 12 58 9
4 -3 8 3 8 13 0 13 3 14 8 5 9 -13 62 -13 62 1 0 5 -7 7 -15 4 -8 -4 -17 -2
-20 3 -3 5 10 9 30 8 24 -1 32 -4 23 -10z m1288 -54 c91 -26 227 -84 322 -136
l63 -35 -88 -81 c-202 -184 -333 -279 -488 -354 -102 -48 -142 -55 -195 -34
-27 10 -39 12 -34 5 5 -9 2 -10 -11 -5 -27 10 -160 -4 -143 -15 20 -14 -137
-9 -219 7 -80 15 -298 69 -353 87 -42 13 -61 27 -38 27 10 0 21 14 28 36 l12
36 57 -6 c31 -3 52 -3 46 -1 -11 5 -313 72 -585 131 -96 20 -179 41 -183 45
-12 10 11 115 26 118 148 22 314 37 325 28 10 -8 16 -7 21 1 10 17 108 32 601
96 234 30 475 62 535 70 128 17 189 13 301 -20z m-1446 -394 c0 -5 -9 -11 -20
-11 -11 -1 -25 -2 -32 -3 -6 -1 -13 4 -15 9 -2 6 13 12 32 13 19 2 35 -2 35
-8z m-85 -10 c-9 -15 38 -31 47 -16 6 8 8 8 8 -1 0 -6 -5 -15 -10 -18 -12 -7
-77 12 -85 26 -3 5 0 6 8 3 8 -3 18 -1 22 5 3 6 8 11 11 11 3 0 2 -5 -1 -10z
m190 -10 c15 -7 10 -9 -23 -9 -26 -1 -41 3 -37 9 7 12 32 12 60 0z m75 -40 c0
-5 -5 -10 -11 -10 -5 0 -7 5 -4 10 3 6 8 10 11 10 2 0 4 -4 4 -10z m-3125
-220 c239 -77 445 -258 530 -468 71 -174 88 -386 46 -547 -47 -175 -162 -352
-299 -460 -59 -47 -203 -123 -283 -149 -75 -24 -208 -38 -293 -31 -362 31
-646 263 -759 620 -19 60 -22 92 -22 230 1 148 3 166 29 245 76 230 223 403
431 507 135 68 211 83 400 79 122 -3 163 -8 220 -26z m836 -316 c16 -29 16
-30 -61 -187 l-78 -159 -11 50 c-9 46 -7 59 23 149 35 103 81 186 100 180 6
-2 18 -17 27 -33z m2476 -101 c41 -71 113 -226 113 -244 0 -28 -151 -198 -264
-298 -332 -294 -654 -501 -1004 -647 -128 -53 -331 -114 -380 -114 -22 0 -253
141 -249 152 1 4 24 22 50 41 127 90 308 280 375 393 16 28 45 71 64 96 19 25
40 66 48 91 l13 47 71 20 c292 84 554 181 782 290 166 80 258 136 308 189 17
17 33 31 37 31 5 0 21 -21 36 -47z m-1492 -541 c-3 -3 -11 0 -18 7 -9 10 -8
11 6 5 10 -3 15 -9 12 -12z m-1039 -16 c191 -56 531 -69 786 -30 l43 7 -75
-51 c-97 -65 -229 -177 -300 -254 l-56 -61 -89 58 c-134 86 -166 98 -244 92
-63 -5 -67 -4 -123 34 -32 22 -58 43 -58 47 1 15 38 150 44 161 9 14 12 14 72
-3z m-112 -287 c28 -17 53 -33 55 -35 5 -5 -103 -184 -111 -184 -4 0 -32 17
-62 38 l-54 38 19 25 c11 13 36 52 55 87 20 34 38 62 41 62 3 0 29 -14 57 -31z
m282 -80 c47 -29 42 -32 -13 -7 -57 25 -62 28 -38 28 10 0 33 -9 51 -21z
m2523 -88 c-14 -98 -48 -239 -90 -374 -36 -115 -46 -135 -102 -205 -122 -153
-298 -311 -487 -441 -310 -213 -559 -323 -890 -392 -89 -19 -138 -23 -315 -23
-233 -1 -339 12 -395 49 -51 33 -198 205 -268 315 -34 52 -59 96 -58 98 2 2
53 -6 112 -18 204 -38 484 -43 713 -12 l61 9 107 -65 c167 -99 173 -102 256
-102 89 0 158 30 213 93 57 66 77 120 78 208 l0 76 134 67 c260 130 488 292
688 491 72 71 157 165 189 208 31 42 58 77 60 77 1 0 -2 -26 -6 -59z m-2374
-42 c-18 -34 -18 -34 -35 -14 -11 13 -10 14 5 8 15 -5 17 -3 12 11 -4 10 -3
15 3 11 6 -3 10 1 10 10 0 9 4 13 10 10 6 -4 4 -17 -5 -36z m100 -69 c-9 -16
-18 -30 -21 -30 -2 0 2 14 11 30 9 17 18 30 21 30 2 0 -2 -13 -11 -30z m309
-159 c-2 -3 -12 3 -22 13 -16 17 -16 18 5 5 12 -7 20 -15 17 -18z m-771 -80
c37 -24 67 -45 67 -48 0 -7 -109 7 -137 18 -19 7 -23 16 -23 49 0 31 3 39 13
33 6 -5 42 -28 80 -52z m1072 -101 c3 -5 1 -10 -4 -10 -6 0 -11 5 -11 10 0 6
2 10 4 10 3 0 8 -4 11 -10z m50 -38 c-7 -8 -35 7 -35 18 0 6 7 6 20 -2 10 -7
17 -14 15 -16z m317 -191 c4 -3 -4 -6 -17 -6 -12 0 -21 3 -18 8 8 13 -10 7
-30 -10 -19 -17 -20 -17 -14 0 4 9 2 17 -4 17 -6 0 -7 5 -4 10 4 6 1 18 -7 28
-11 14 72 -27 94 -47z m125 -213 c-3 -7 -5 -2 -5 12 0 14 2 19 5 13 2 -7 2
-19 0 -25z"/>
<path d="M6530 7434 c-119 -47 -146 -61 -96 -48 21 5 27 4 22 -5 -11 -18 5
-13 20 7 13 16 14 16 8 -1 -5 -13 -2 -16 9 -11 9 3 22 2 29 -2 15 -9 63 -15
54 -7 -3 3 -1 12 4 18 15 18 -11 36 -39 28 -17 -4 -19 -8 -9 -14 9 -6 6 -8
-10 -6 -26 2 -29 15 -4 23 9 3 25 10 34 15 11 5 19 5 23 -2 4 -6 12 -3 21 8
13 17 13 17 14 0 0 -16 2 -17 15 -4 8 9 24 13 35 10 11 -3 32 -2 47 2 25 6 26
8 10 17 -10 5 -26 6 -35 3 -9 -4 -28 -9 -42 -11 l-25 -3 25 14 c46 26 6 15
-110 -31z"/>
<path d="M6604 7384 c3 -9 6 -20 6 -26 0 -5 7 -2 16 7 9 9 22 14 29 12 6 -3
12 1 12 8 0 10 -5 11 -18 4 -11 -6 -20 -5 -24 1 -10 16 -28 11 -21 -6z"/>
<path d="M6705 7340 c-3 -5 -1 -10 4 -10 6 0 11 5 11 10 0 6 -2 10 -4 10 -3 0
-8 -4 -11 -10z"/>
<path d="M6270 7320 c0 -5 5 -10 10 -10 6 0 10 5 10 10 0 6 -4 10 -10 10 -5 0
-10 -4 -10 -10z"/>
<path d="M6301 7258 c-1 -11 -7 -15 -21 -11 -11 3 -20 1 -20 -4 0 -5 56 -23
125 -39 69 -17 125 -28 125 -25 0 4 -26 12 -57 20 -31 7 -68 18 -82 24 -28 11
-36 14 -50 16 -5 0 -12 9 -14 19 -4 15 -5 15 -6 0z"/>
<path d="M5963 7153 c9 -2 25 -2 35 0 9 3 1 5 -18 5 -19 0 -27 -2 -17 -5z"/>
<path d="M5638 7137 c-22 -5 -38 -15 -38 -24 0 -8 5 -11 10 -8 15 9 12 -1 -10
-48 l-21 -42 36 40 c42 47 69 84 64 89 -2 1 -21 -2 -41 -7z"/>
<path d="M5863 7143 c9 -2 23 -2 30 0 6 3 -1 5 -18 5 -16 0 -22 -2 -12 -5z"/>
<path d="M6113 7003 c-15 -5 -17 -23 -4 -23 5 0 11 7 15 15 3 8 4 15 3 14 -1
0 -8 -3 -14 -6z"/>
<path d="M6020 6985 c-7 -8 -11 -15 -9 -16 37 -7 40 -7 30 5 -6 7 -8 16 -4 19
3 4 4 7 1 7 -3 0 -11 -7 -18 -15z"/>
<path d="M6316 6985 c-3 -8 -1 -15 4 -15 6 0 10 7 10 15 0 8 -2 15 -4 15 -2 0
-6 -7 -10 -15z"/>
<path d="M6180 6962 c-14 -2 -29 -8 -35 -13 -7 -7 -5 -8 5 -5 8 3 30 7 48 10
19 2 36 7 39 10 5 5 -10 4 -57 -2z"/>
<path d="M6190 6900 c-8 -5 -10 -10 -5 -10 6 0 17 5 25 10 8 5 11 10 5 10 -5
0 -17 -5 -25 -10z"/>
<path d="M7588 6563 c7 -3 16 -2 19 1 4 3 -2 6 -13 5 -11 0 -14 -3 -6 -6z"/>
<path d="M7636 6506 c3 -9 13 -16 22 -16 8 0 13 1 11 3 -2 1 -12 9 -22 16 -15
12 -17 12 -11 -3z"/>
<path d="M7120 6499 c8 -5 29 -17 45 -25 27 -13 28 -13 10 0 -11 9 -25 20 -32
26 -7 5 -18 10 -25 10 -9 0 -9 -3 2 -11z"/>
<path d="M5961 6353 c-151 -81 -269 -149 -263 -151 7 -2 10 -8 6 -13 -3 -5 -1
-9 5 -9 15 0 775 252 784 260 4 4 -14 12 -42 17 -28 6 -48 6 -45 1 3 -4 17 -8
32 -9 41 -1 -104 -49 -147 -49 -27 0 -32 3 -21 10 8 5 10 10 4 10 -13 0 -51
-40 -38 -41 17 -1 -100 -50 -132 -55 -29 -4 -31 -3 -29 21 2 14 0 23 -4 21 -4
-3 -13 -1 -20 4 -10 6 -3 14 27 29 23 12 50 21 62 21 11 0 20 4 20 10 0 5 10
15 23 21 20 11 21 11 9 -4 -11 -13 -10 -15 8 -10 12 3 20 1 18 -5 -2 -5 0 -10
5 -11 4 -1 7 2 6 5 -2 13 26 23 32 12 4 -6 10 -2 14 11 3 11 11 21 16 21 6 0
7 -5 3 -11 -4 -7 1 -7 16 1 12 6 28 9 36 6 8 -3 14 -2 14 3 0 7 -88 31 -113
31 -7 -1 -135 -67 -286 -147z m-211 -137 c0 -2 -7 -7 -16 -10 -8 -3 -12 -2 -9
4 6 10 25 14 25 6z"/>
<path d="M6667 6423 c-57 -17 -57 -29 0 -14 21 6 61 11 88 12 44 1 46 2 20 9
-42 11 -53 10 -108 -7z"/>
<path d="M6186 6412 c-3 -5 1 -9 9 -9 8 0 12 4 9 9 -3 4 -7 8 -9 8 -2 0 -6 -4
-9 -8z"/>
<path d="M6113 6403 c-7 -3 -13 -9 -13 -15 0 -7 4 -7 13 0 10 9 19 8 34 -3 12
-8 29 -12 38 -9 31 12 -39 38 -72 27z"/>
<path d="M7130 6366 c0 -2 11 -6 25 -8 13 -3 22 -1 19 3 -5 9 -44 13 -44 5z"/>
<path d="M6843 6347 c0 -7 9 -14 20 -14 11 -1 18 -1 16 0 -2 2 -11 8 -20 15
-12 9 -16 9 -16 -1z"/>
<path d="M6900 6340 c0 -5 4 -10 9 -10 6 0 13 5 16 10 3 6 -1 10 -9 10 -9 0
-16 -4 -16 -10z"/>
<path d="M5745 6320 c-3 -6 1 -7 9 -4 18 7 21 14 7 14 -6 0 -13 -4 -16 -10z"/>
<path d="M6470 6319 c-13 -9 -13 -10 0 -6 8 2 27 0 43 -4 15 -4 27 -4 27 2 0
5 5 9 11 9 5 0 8 -4 5 -9 -3 -5 0 -11 8 -14 10 -4 12 0 9 14 -4 15 -14 19 -47
19 -22 0 -48 -5 -56 -11z"/>
<path d="M6455 6261 c-6 -10 21 -34 33 -29 4 1 0 11 -10 20 -9 10 -20 13 -23
9z"/>
<path d="M6808 6263 c7 -3 16 -2 19 1 4 3 -2 6 -13 5 -11 0 -14 -3 -6 -6z"/>
<path d="M6505 6250 c3 -5 8 -10 11 -10 2 0 4 5 4 10 0 6 -5 10 -11 10 -5 0
-7 -4 -4 -10z"/>
<path d="M5730 6589 c0 -5 5 -7 10 -4 6 3 10 8 10 11 0 2 -4 4 -10 4 -5 0 -10
-5 -10 -11z"/>
<path d="M6200 5961 c0 -6 -40 -12 -97 -14 l-98 -3 108 -2 c97 -2 126 5 97 23
-5 3 -10 2 -10 -4z"/>
<path d="M5744 5948 c-3 -5 30 -8 72 -8 43 0 75 2 73 4 -8 8 -141 11 -145 4z"/>
<path d="M5751 5886 c7 -8 381 -91 449 -100 l45 -6 -43 14 c-23 8 -50 17 -60
22 -9 4 -21 6 -25 5 -5 -1 -6 3 -3 8 4 6 18 4 35 -5 29 -14 66 -10 55 7 -3 5
3 6 12 2 13 -5 15 -3 9 8 -6 11 -5 12 6 2 7 -7 17 -13 22 -13 4 0 5 6 1 13 -6
10 -4 10 7 0 7 -7 25 -13 40 -13 23 0 33 -9 40 -38 1 -4 9 -12 18 -19 13 -9
10 -10 -14 -7 -41 6 -4 -10 45 -20 l34 -6 -42 40 c-23 22 -49 54 -57 70 l-16
30 -182 0 c-100 0 -227 3 -282 6 -55 4 -97 4 -94 0z m416 -42 c-3 -3 -12 -4
-19 -1 -8 3 -5 6 6 6 11 1 17 -2 13 -5z"/>
<path d="M6258 5773 c6 -2 18 -2 25 0 6 3 1 5 -13 5 -14 0 -19 -2 -12 -5z"/>
<path d="M6625 5720 c3 -5 11 -10 16 -10 6 0 7 5 4 10 -3 6 -11 10 -16 10 -6
0 -7 -4 -4 -10z"/>
<path d="M6612 5687 c21 -38 92 -126 102 -127 5 0 6 3 3 7 -4 3 1 12 11 20 16
12 15 13 -7 11 -15 -2 -26 3 -28 12 -4 13 -3 13 6 0 9 -13 11 -13 11 1 0 19
60 30 85 16 8 -4 15 -6 15 -3 0 2 -32 22 -70 45 -66 38 -100 44 -100 17 0 -6
-7 -3 -14 7 -19 25 -29 21 -14 -6z m134 -43 c-12 -9 -56 -12 -56 -4 0 6 5 8
10 5 6 -3 13 1 16 9 5 12 9 13 19 3 7 -7 12 -12 11 -13z"/>
<path d="M6535 5619 c-16 -3 -22 -7 -12 -8 54 -4 67 -15 61 -58 -2 -20 -1 -34
2 -30 4 4 13 2 21 -5 7 -6 16 -8 20 -5 3 4 12 2 20 -4 9 -9 13 -8 13 0 0 6 -4
11 -9 11 -5 0 -12 8 -16 18 -3 9 -20 33 -38 53 -28 31 -36 35 -62 28z m79 -74
c9 -14 13 -25 8 -25 -5 0 -14 11 -20 25 -6 14 -10 25 -8 25 2 0 11 -11 20 -25z"/>
<path d="M6480 5551 c0 -5 12 -12 28 -15 15 -4 35 -9 45 -12 16 -5 17 -3 6 15
-9 14 -17 17 -25 10 -8 -7 -14 -6 -19 1 -8 12 -35 13 -35 1z"/>
<path d="M6957 5549 c7 -7 15 -10 18 -7 3 3 -2 9 -12 12 -14 6 -15 5 -6 -5z"/>
<path d="M7017 5519 c7 -7 15 -10 18 -7 3 3 -2 9 -12 12 -14 6 -15 5 -6 -5z"/>
<path d="M2670 5329 c-439 -114 -659 -607 -449 -1009 201 -387 707 -496 1053
-226 120 93 217 243 251 386 21 93 19 249 -5 344 -52 205 -212 393 -401 474
-125 54 -313 67 -449 31z m305 -94 c183 -46 347 -182 416 -342 69 -161 62
-373 -16 -522 -123 -235 -397 -369 -645 -317 -270 57 -469 284 -487 557 -16
231 126 474 337 578 47 23 105 45 130 50 73 14 201 12 265 -4z"/>
</g>
</svg>
